<svg width="597" height="990" viewBox="0 0 597 990" fill="none" xmlns="http://www.w3.org/2000/svg">
<mask id="mask0_0_1" style="mask-type:luminance" maskUnits="userSpaceOnUse" x="8" y="13" width="582" height="964">
<path d="M589.321 13H8V977H589.321V13Z" fill="white"/>
</mask>
<g mask="url(#mask0_0_1)">
<path d="M301.972 430.891H302.098C336.172 432.671 363.252 460.656 363.252 495C363.252 518.772 350.24 539.456 330.956 550.575V623.533C330.956 641.281 316.497 655.667 298.661 655.667C280.824 655.667 266.365 641.281 266.365 623.533V550.575C247.081 539.456 234.069 518.772 234.069 495C234.069 460.666 261.133 432.687 295.191 430.891C296.33 430.769 297.49 430.733 298.661 430.733L301.972 430.891Z" fill="#ffa700"/>
<path fill-rule="evenodd" clip-rule="evenodd" d="M298.661 13C405.679 13 492.434 99.3195 492.434 205.8V270.067H557.026C574.862 270.067 589.321 284.453 589.321 302.2V944.867C589.321 962.614 574.862 977 557.026 977H121.035C91.0559 977 62.3138 965.143 41.1156 944.051C19.9175 922.958 8 894.363 8 864.533V382.533C8 352.704 19.9175 324.108 41.1156 303.016C58.471 285.748 80.8796 274.646 104.887 271.196V205.8C104.887 99.3195 191.642 13 298.661 13ZM121.035 816.333C108.187 816.333 95.8686 821.414 86.7836 830.456C77.6988 839.495 72.5912 851.751 72.5912 864.533C72.5912 877.316 77.6988 889.572 86.7836 898.611C95.8686 907.653 108.187 912.733 121.035 912.733H524.73V816.333H121.035ZM121.035 334.333C108.187 334.333 95.8686 339.414 86.7836 348.456C77.6988 357.495 72.5912 369.751 72.5912 382.533V762.925C87.589 755.842 104.115 752.067 121.035 752.067H524.73V334.333H121.035ZM298.661 77.2667C227.315 77.2667 169.478 134.813 169.478 205.8V270.067H427.843V205.8C427.843 134.813 370.005 77.2667 298.661 77.2667Z" fill="#ffa700"/>
</g>
</svg>
