<svg width="24" height="24" viewBox="0 0 24 24" fill="none" xmlns="http://www.w3.org/2000/svg">
<path d="M13 15C13.5523 15 14 15.4477 14 16C14 16.5523 13.5523 17 13 17H10C9.44772 17 9 16.5523 9 16C9 15.4477 9.44772 15 10 15H13Z" fill="currentColor"/>
<path d="M16 11C16.5523 11 17 11.4477 17 12C17 12.5523 16.5523 13 16 13H10C9.44772 13 9 12.5523 9 12C9 11.4477 9.44772 11 10 11H16Z" fill="currentColor"/>
<path d="M16 7C16.5523 7 17 7.44772 17 8C17 8.55228 16.5523 9 16 9H10C9.44772 9 9 8.55228 9 8C9 7.44772 9.44772 7 10 7H16Z" fill="currentColor"/>
<path fill-rule="evenodd" clip-rule="evenodd" d="M17 1C19.2091 1 21 2.79086 21 5V19L20.9951 19.2061C20.8913 21.2512 19.2512 22.8913 17.2061 22.9951L17 23H8L7.79395 22.9951C5.7488 22.8913 4.10865 21.2512 4.00488 19.2061L4 19V18C3.44772 18 3 17.5523 3 17C3 16.4477 3.44772 16 4 16V13C3.44772 13 3 12.5523 3 12C3 11.4477 3.44772 11 4 11V8C3.44772 8 3 7.55228 3 7C3 6.44772 3.44772 6 4 6V5C4 2.79086 5.79086 1 8 1H17ZM8 3C6.89543 3 6 3.89543 6 5V6L6.10254 6.00488C6.60667 6.05621 7 6.48232 7 7C7 7.51768 6.60667 7.94379 6.10254 7.99512L6 8V11C6.55228 11 7 11.4477 7 12C7 12.5523 6.55228 13 6 13V16C6.55228 16 7 16.4477 7 17C7 17.5523 6.55228 18 6 18V19C6 20.1046 6.89543 21 8 21H17C18.1046 21 19 20.1046 19 19V5C19 3.89543 18.1046 3 17 3H8Z" fill="currentColor"/>
</svg>
