<svg width="24" height="24" viewBox="0 0 24 24" fill="none" xmlns="http://www.w3.org/2000/svg">
<path d="M15.584 8.93732C15.9122 8.49354 16.5384 8.40047 16.9825 8.72833C17.4262 9.05665 17.5205 9.68276 17.1924 10.1268L13.3321 15.3514C12.6043 16.3358 11.1696 16.4406 10.3057 15.5731L7.72661 12.9832C7.33694 12.5919 7.33822 11.9579 7.72954 11.5682C8.12089 11.1787 8.75395 11.1808 9.1436 11.5721L11.7237 14.1619L15.584 8.93732Z" fill="currentColor"/>
<path fill-rule="evenodd" clip-rule="evenodd" d="M9.86625 1.93243C11.0455 0.689186 13.0347 0.689191 14.2139 1.93243L14.3291 2.06036L15.1143 2.9881L16.2969 2.70001L16.4659 2.66388C18.2064 2.34122 19.8661 3.60004 20 5.39044L20.0899 6.60236L21.2168 7.06427C22.932 7.76692 23.6057 9.84218 22.6309 11.4188L21.9903 12.4529L22.6309 13.4871C23.6054 15.0637 22.9319 17.139 21.2168 17.8416L20.0899 18.3026L20 19.5154C19.8613 21.3633 18.0972 22.6455 16.2969 22.2059L15.1143 21.9168L14.3291 22.8455C13.1308 24.2589 10.9491 24.2593 9.75102 22.8455L8.96489 21.9168L7.78325 22.2059C5.98318 22.645 4.2188 21.3631 4.08012 19.5154L3.9893 18.3026L2.86333 17.8416C1.14857 17.139 0.475261 15.0635 1.44926 13.4871L2.08891 12.4529L1.44926 11.4188C0.474646 9.84241 1.14868 7.76721 2.86333 7.06427L3.9893 6.60236L4.08012 5.39044L4.0977 5.21954C4.32083 3.52091 5.9299 2.35186 7.6143 2.66388L7.78325 2.70001L8.96489 2.9881L9.75102 2.06036L9.86625 1.93243ZM12.8028 3.35333C12.4034 2.8822 11.6768 2.8822 11.2774 3.35333L10.0909 4.75275C9.8459 5.04133 9.45864 5.16778 9.09086 5.07794L7.30864 4.64239C6.70862 4.49623 6.12028 4.92391 6.07426 5.53986L5.93754 7.36896C5.90905 7.74648 5.66977 8.07701 5.31938 8.22052L3.62211 8.91583C3.05088 9.15031 2.82564 9.84168 3.15043 10.367L4.11528 11.9276C4.31394 12.2495 4.31406 12.6564 4.11528 12.9783L3.15043 14.5389C2.82625 15.0643 3.05078 15.7559 3.62211 15.9901L5.31938 16.6854C5.67001 16.829 5.90932 17.1591 5.93754 17.5369L6.07426 19.366C6.11776 19.943 6.63751 20.355 7.19633 20.284L7.30864 20.2635L9.09086 19.8279C9.45894 19.738 9.84594 19.864 10.0909 20.1531L11.2774 21.5526C11.6517 21.9939 12.3143 22.0215 12.7247 21.6356L12.8028 21.5526L13.9893 20.1531C14.2342 19.8641 14.6213 19.7382 14.9893 19.8279L16.7715 20.2635C17.3339 20.4007 17.8862 20.0329 17.9913 19.4793L18.0059 19.366L18.1426 17.5369C18.1708 17.1593 18.4106 16.8291 18.7608 16.6854L20.4581 15.9901C21.0297 15.7559 21.2544 15.0644 20.9297 14.5389L19.9649 12.9783C19.7662 12.6566 19.7665 12.2495 19.9649 11.9276L20.9297 10.367C21.2343 9.87434 21.0561 9.23556 20.5616 8.96466L20.4581 8.91583L18.7608 8.22052C18.4544 8.09494 18.2328 7.82629 18.1631 7.50861L18.1426 7.36896L18.0059 5.53986C17.9599 4.92378 17.3717 4.49597 16.7715 4.64239L14.9893 5.07794L14.8506 5.10236C14.5732 5.12974 14.2953 5.03963 14.087 4.85431L13.9893 4.75275L12.8028 3.35333Z" fill="currentColor"/>
</svg>
