<svg width="24" height="24" viewBox="0 0 24 24" fill="none" xmlns="http://www.w3.org/2000/svg">
<path d="M12 7.99996C13.1046 7.99996 14 8.89539 14 9.99996C14 10.7397 13.5971 11.3835 13 11.7295V15C13 15.5522 12.5523 16 12 16C11.4477 16 11 15.5522 11 15V11.7295C10.4029 11.3835 10 10.7397 10 9.99996C10 8.89539 10.8954 7.99996 12 7.99996Z" fill="currentColor"/>
<path fill-rule="evenodd" clip-rule="evenodd" d="M11.7344 1.03609C11.937 0.980244 12.1533 0.989098 12.3516 1.06343L20.3516 4.06343C20.7417 4.20989 21 4.58324 21 4.99996V12C21 15.4464 18.7179 18.2006 16.6582 20.0029C15.6076 20.9221 14.5616 21.6405 13.7803 22.1289C13.3885 22.3737 13.0604 22.5628 12.8281 22.6914C12.712 22.7557 12.6194 22.8048 12.5547 22.8388C12.5223 22.8558 12.4966 22.8696 12.4785 22.8789L12.4512 22.8925L12.4482 22.8935L12 22L12.4473 22.8945C12.1658 23.0352 11.8342 23.0352 11.5527 22.8945L12 22C11.5576 22.8848 11.5531 22.8945 11.5527 22.8945L11.5518 22.8935L11.5488 22.8925L11.5215 22.8789C11.5034 22.8696 11.4777 22.8558 11.4453 22.8388C11.3806 22.8048 11.288 22.7557 11.1719 22.6914C10.9396 22.5628 10.6115 22.3737 10.2197 22.1289C9.4384 21.6405 8.39239 20.9221 7.3418 20.0029C5.28206 18.2006 3.00004 15.4464 3 12V4.99996C3 4.58324 3.25833 4.20989 3.64844 4.06343L11.6484 1.06343L11.7344 1.03609ZM5 5.69332V12C5.00004 14.5533 6.71812 16.7994 8.6582 18.497C9.60731 19.3275 10.5617 19.9845 11.2803 20.4336C11.5629 20.6102 11.8086 20.7518 12 20.8603C12.1914 20.7518 12.4371 20.6102 12.7197 20.4336C13.4383 19.9845 14.3927 19.3275 15.3418 18.497C17.2819 16.7994 19 14.5533 19 12V5.69332L12 3.06832L5 5.69332Z" fill="currentColor"/>
</svg>
