<svg width="24" height="24" viewBox="0 0 24 24" fill="none" xmlns="http://www.w3.org/2000/svg">
<path d="M12 23C9.06162 23 6.29925 21.8472 4.22162 19.7536C2.144 17.6599 1 14.8763 1 11.9153C1 9.81888 1.58438 7.7779 2.6885 6.01127C3.57641 4.59182 4.76794 3.39782 6.1706 2.51385C6.65752 2.20698 7.28743 2.41937 7.5437 2.93472C7.79777 3.44562 7.58758 4.06093 7.11125 4.37507C6.03743 5.08328 5.1227 6.01817 4.43337 7.11975C3.53687 8.55245 3.0625 10.211 3.0625 11.9153C3.0625 16.8812 7.072 20.9216 12 20.9216C16.928 20.9216 20.9375 16.8812 20.9375 11.9153C20.9375 10.211 20.4631 8.55383 19.5666 7.11975C18.8774 6.01729 17.9629 5.08231 16.8894 4.37479C16.4129 4.06075 16.2024 3.44535 16.4565 2.93437C16.7127 2.41921 17.3423 2.20691 17.8291 2.51364C19.2319 3.39763 20.4235 4.59171 21.3115 6.01127C22.4156 7.77652 23 9.81888 23 11.9153C23 14.8763 21.856 17.6599 19.7784 19.7536C17.7007 21.8472 14.9384 23 12 23Z" fill="currentColor"/>
<animateTransform attributeName="transform" type="rotate" from="0 0 0" to="360 0 0" dur="1s" repeatCount="indefinite"/>
</svg>
