<svg width="143" height="238" viewBox="0 0 143 238" fill="none" xmlns="http://www.w3.org/2000/svg">
<mask id="mask0_5_2" style="mask-type:luminance" maskUnits="userSpaceOnUse" x="1" y="3" width="141" height="232">
<path d="M141.161 3.12524H1.91624V234.875H141.161V3.12524Z" fill="white"/>
</mask>
<g mask="url(#mask0_5_2)">
<path d="M72.1921 110.033H72.2185C79.3401 110.405 85 116.252 85 123.429C85 128.396 82.2804 132.718 78.2499 135.041V150.286C78.2499 153.994 75.2279 157 71.5001 157C67.7721 157 64.75 153.994 64.75 150.286V135.041C60.7196 132.718 58 128.396 58 123.429C58 116.255 63.6565 110.408 70.7749 110.033C71.0129 110.008 71.2554 110 71.5001 110L72.1921 110.033Z" fill="#FFA700" stroke="#FFA700" stroke-width="8" stroke-linejoin="round"/>
<path fill-rule="evenodd" clip-rule="evenodd" d="M71.5001 8C95.6165 8 115.167 27.9681 115.167 52.6V67.4667H129.722C133.742 67.4667 137 70.7946 137 74.9V223.567C137 227.672 133.742 231 129.722 231H31.4723C24.7166 231 18.2396 228.257 13.4626 223.378C8.6856 218.499 6 211.884 6 204.983V93.4833C6 86.583 8.6856 79.9679 13.4626 75.0888C17.3736 71.0942 22.4233 68.526 27.8334 67.7279V52.6C27.8334 27.9681 47.3835 8 71.5001 8ZM31.4723 193.833C28.577 193.833 25.8011 195.009 23.7538 197.1C21.7065 199.191 20.5556 202.026 20.5556 204.983C20.5556 207.94 21.7065 210.775 23.7538 212.866C25.8011 214.958 28.577 216.133 31.4723 216.133H122.444V193.833H31.4723ZM31.4723 82.3333C28.577 82.3333 25.8011 83.5086 23.7538 85.6003C21.7065 87.6913 20.5556 90.5264 20.5556 93.4833V181.478C23.9353 179.84 27.6594 178.967 31.4723 178.967H122.444V82.3333H31.4723ZM71.5001 22.8667C55.4224 22.8667 42.3889 36.1787 42.3889 52.6V67.4667H100.611V52.6C100.611 36.1787 87.5774 22.8667 71.5001 22.8667Z" fill="#FFA700" stroke="#FFA700" stroke-width="8" stroke-linejoin="round"/>
</g>
</svg>
