<svg xmlns="http://www.w3.org/2000/svg" width="80" height="80"><g transform="translate(12,14) scale(1.1)" opacity="0.85"><path d="M0 -4 L0.9 -0.9 L4 0 L0.9 0.9 L0 4 L-0.9 0.9 L-4 0 L-0.9 -0.9 Z" fill="black"/></g><g transform="translate(58,8) scale(0.9)" opacity="0.7"><path d="M0 -4 L0.9 -0.9 L4 0 L0.9 0.9 L0 4 L-0.9 0.9 L-4 0 L-0.9 -0.9 Z" fill="black"/></g><g transform="translate(38,34) scale(0.7)" opacity="0.75"><path d="M0 -4 L0.9 -0.9 L4 0 L0.9 0.9 L0 4 L-0.9 0.9 L-4 0 L-0.9 -0.9 Z" fill="black"/></g><g transform="translate(70,46) scale(1.0)" opacity="0.8"><path d="M0 -4 L0.9 -0.9 L4 0 L0.9 0.9 L0 4 L-0.9 0.9 L-4 0 L-0.9 -0.9 Z" fill="black"/></g><g transform="translate(20,56) scale(0.85)" opacity="0.7"><path d="M0 -4 L0.9 -0.9 L4 0 L0.9 0.9 L0 4 L-0.9 0.9 L-4 0 L-0.9 -0.9 Z" fill="black"/></g><g transform="translate(48,70) scale(0.7)" opacity="0.7"><path d="M0 -4 L0.9 -0.9 L4 0 L0.9 0.9 L0 4 L-0.9 0.9 L-4 0 L-0.9 -0.9 Z" fill="black"/></g><g transform="translate(8,76) scale(0.6)" opacity="0.6"><path d="M0 -4 L0.9 -0.9 L4 0 L0.9 0.9 L0 4 L-0.9 0.9 L-4 0 L-0.9 -0.9 Z" fill="black"/></g></svg>
